{
  "accessors": [
    {
      "bufferView": 2,
      "componentType": 5126,
      "count": 1777,
      "max": [
        1.9194300174713135,
        3.386152982711792,
        0.5955589413642883
      ],
      "min": [
        -1.9194300174713135,
        -0.09948845952749252,
        -0.7080602645874023
      ],
      "type": "VEC3"
    },
    {
      "bufferView": 2,
      "byteOffset": 21324,
      "componentType": 5126,
      "count": 1777,
      "max": [
        1.0,
        1.0,
        1.0
      ],
      "min": [
        -1.0,
        -1.0,
        -1.0
      ],
      "type": "VEC3"
    },
    {
      "bufferView": 3,
      "componentType": 5126,
      "count": 1777,
      "max": [
        1.0,
        0.9999897480010986,
        1.0,
        1.0
      ],
      "min": [
        -1.0,
        -0.9999997019767761,
        -1.0,
        -1.0
      ],
      "type": "VEC4"
    },
    {
      "bufferView": 1,
      "componentType": 5126,
      "count": 1777,
      "max": [
        1.9983654022216797,
        0.9959841966629028
      ],
      "min": [
        0.002114261267706752,
        0.001044154167175293
      ],
      "type": "VEC2"
    },
    {
      "bufferView": 1,
      "byteOffset": 14216,
      "componentType": 5126,
      "count": 1777,
      "max": [
        1.9983654022216797,
        0.9959841966629028
      ],
      "min": [
        0.002114261267706752,
        0.001044154167175293
      ],
      "type": "VEC2"
    },
    {
      "bufferView": 1,
      "byteOffset": 28432,
      "componentType": 5126,
      "count": 1777,
      "max": [
        1.9983654022216797,
        0.9959841966629028
      ],
      "min": [
        0.002114261267706752,
        0.001044154167175293
      ],
      "type": "VEC2"
    },
    {
      "bufferView": 1,
      "byteOffset": 42648,
      "componentType": 5126,
      "count": 1777,
      "max": [
        1.9983654022216797,
        0.9959841966629028
      ],
      "min": [
        0.002114261267706752,
        0.001044154167175293
      ],
      "type": "VEC2"
    },
    {
      "bufferView": 0,
      "componentType": 5125,
      "count": 7416,
      "type": "SCALAR"
    }
  ],
  "asset": {
    "extras": {
      "author": "avelium (https://sketchfab.com/avelium)",
      "license": "CC-BY-4.0 (http://creativecommons.org/licenses/by/4.0/)",
      "source": "https://sketchfab.com/3d-models/medieval-notice-board-566a4332b57d4045a1cc4ffec77b4b8f",
      "title": "Medieval Notice Board"
    },
    "generator": "Sketchfab-12.68.0",
    "version": "2.0"
  },
  "bufferViews": [
    {
      "buffer": 0,
      "byteLength": 29664,
      "name": "floatBufferViews",
      "target": 34963
    },
    {
      "buffer": 0,
      "byteLength": 56864,
      "byteOffset": 29664,
      "byteStride": 8,
      "name": "floatBufferViews",
      "target": 34962
    },
    {
      "buffer": 0,
      "byteLength": 42648,
      "byteOffset": 86528,
      "byteStride": 12,
      "name": "floatBufferViews",
      "target": 34962
    },
    {
      "buffer": 0,
      "byteLength": 28432,
      "byteOffset": 129176,
      "byteStride": 16,
      "name": "floatBufferViews",
      "target": 34962
    }
  ],
  "buffers": [
    {
      "byteLength": 157608,
      "uri": "scene.bin"
    }
  ],
  "images": [
    {
      "uri": "textures/default_baseColor.jpeg"
    },
    {
      "uri": "textures/default_normal.png"
    }
  ],
  "materials": [
    {
      "name": "default",
      "normalTexture": {
        "index": 1
      },
      "pbrMetallicRoughness": {
        "baseColorTexture": {
          "index": 0
        },
        "metallicFactor": 0.0,
        "roughnessFactor": 0.6
      }
    }
  ],
  "meshes": [
    {
      "name": "Object_0",
      "primitives": [
        {
          "attributes": {
            "NORMAL": 1,
            "POSITION": 0,
            "TANGENT": 2,
            "TEXCOORD_0": 3,
            "TEXCOORD_1": 4,
            "TEXCOORD_2": 5,
            "TEXCOORD_3": 6
          },
          "indices": 7,
          "material": 0,
          "mode": 4
        }
      ]
    }
  ],
  "nodes": [
    {
      "children": [
        1
      ],
      "matrix": [
        1.0,
        0.0,
        0.0,
        0.0,
        0.0,
        2.220446049250313e-16,
        -1.0,
        0.0,
        0.0,
        1.0,
        2.220446049250313e-16,
        0.0,
        0.0,
        0.0,
        0.0,
        1.0
      ],
      "name": "Sketchfab_model"
    },
    {
      "children": [
        2
      ],
      "name": "root"
    },
    {
      "children": [
        3
      ],
      "matrix": [
        1.0,
        0.0,
        0.0,
        0.0,
        0.0,
        2.220446049250313e-16,
        1.0,
        0.0,
        0.0,
        -1.0,
        2.220446049250313e-16,
        0.0,
        0.0,
        0.0,
        0.0,
        1.0
      ],
      "name": "GLTF_SceneRootNode"
    },
    {
      "children": [
        4
      ],
      "name": "notice_board_0"
    },
    {
      "mesh": 0,
      "name": "Object_4"
    }
  ],
  "samplers": [
    {
      "magFilter": 9729,
      "minFilter": 9987,
      "wrapS": 10497,
      "wrapT": 10497
    }
  ],
  "scene": 0,
  "scenes": [
    {
      "name": "Sketchfab_Scene",
      "nodes": [
        0
      ]
    }
  ],
  "textures": [
    {
      "sampler": 0,
      "source": 0
    },
    {
      "sampler": 0,
      "source": 1
    }
  ]
}
